<?xml version="1.0" encoding="UTF-8" standalone="no"?>
<!DOCTYPE svg PUBLIC "-//W3C//DTD SVG 1.1//EN"
 "http://www.w3.org/Graphics/SVG/1.1/DTD/svg11.dtd">
<!-- Generated by graphviz version 2.43.0 (0)
 -->
<!-- Title: CGraph Pages: 1 -->
<svg width="206pt" height="331pt"
 viewBox="0.00 0.00 205.99 330.96" xmlns="http://www.w3.org/2000/svg" xmlns:xlink="http://www.w3.org/1999/xlink">
<g id="graph0" class="graph" transform="scale(1 1) rotate(0) translate(4 326.96)">
<title>CGraph</title>
<polygon fill="white" stroke="transparent" points="-4,4 -4,-326.96 201.99,-326.96 201.99,4 -4,4"/>
<!-- p0x6031b6531fe0 -->
<g id="node1" class="node">
<title>p0x6031b6531fe0</title>
<ellipse fill="none" stroke="black" cx="98.99" cy="-296.09" rx="58.88" ry="26.74"/>
<text text-anchor="middle" x="98.99" y="-299.89" font-family="Times,serif" font-size="14.00">相机发布</text>
<text text-anchor="middle" x="98.99" y="-284.89" font-family="Times,serif" font-size="14.00">camera_pub</text>
</g>
<!-- p0x6031b6532220 -->
<g id="node2" class="node">
<title>p0x6031b6532220</title>
<ellipse fill="none" stroke="black" cx="98.99" cy="-206.35" rx="98.99" ry="26.74"/>
<text text-anchor="middle" x="98.99" y="-210.15" font-family="Times,serif" font-size="14.00">OpenVINO 异步推理</text>
<text text-anchor="middle" x="98.99" y="-195.15" font-family="Times,serif" font-size="14.00">async_infer</text>
</g>
<!-- p0x6031b6531fe0&#45;&gt;p0x6031b6532220 -->
<g id="edge1" class="edge">
<title>p0x6031b6531fe0&#45;&gt;p0x6031b6532220</title>
<path fill="none" stroke="black" d="M98.99,-268.77C98.99,-260.8 98.99,-251.91 98.99,-243.42"/>
<polygon fill="black" stroke="black" points="102.5,-243.35 98.99,-233.35 95.5,-243.35 102.5,-243.35"/>
</g>
<!-- p0x6031b6534460 -->
<g id="node3" class="node">
<title>p0x6031b6534460</title>
<ellipse fill="none" stroke="black" cx="57.99" cy="-116.61" rx="54.39" ry="26.74"/>
<text text-anchor="middle" x="57.99" y="-120.41" font-family="Times,serif" font-size="14.00">PnP 解算</text>
<text text-anchor="middle" x="57.99" y="-105.41" font-family="Times,serif" font-size="14.00">pnp_solver</text>
</g>
<!-- p0x6031b6532220&#45;&gt;p0x6031b6534460 -->
<g id="edge2" class="edge">
<title>p0x6031b6532220&#45;&gt;p0x6031b6534460</title>
<path fill="none" stroke="black" d="M86.92,-179.5C82.92,-170.95 78.4,-161.29 74.15,-152.19"/>
<polygon fill="black" stroke="black" points="77.25,-150.55 69.85,-142.97 70.91,-153.51 77.25,-150.55"/>
</g>
<!-- p0x6031b6536030 -->
<g id="node4" class="node">
<title>p0x6031b6536030</title>
<ellipse fill="none" stroke="black" cx="98.99" cy="-26.87" rx="54.39" ry="26.74"/>
<text text-anchor="middle" x="98.99" y="-30.67" font-family="Times,serif" font-size="14.00">显示/调试</text>
<text text-anchor="middle" x="98.99" y="-15.67" font-family="Times,serif" font-size="14.00">display</text>
</g>
<!-- p0x6031b6532220&#45;&gt;p0x6031b6536030 -->
<g id="edge3" class="edge">
<title>p0x6031b6532220&#45;&gt;p0x6031b6536030</title>
<path fill="none" stroke="black" d="M110.45,-179.39C114.66,-168.52 118.9,-155.61 120.99,-143.48 125.06,-119.94 125.06,-113.28 120.99,-89.74 119.45,-80.76 116.72,-71.36 113.7,-62.67"/>
<polygon fill="black" stroke="black" points="116.96,-61.4 110.22,-53.23 110.4,-63.82 116.96,-61.4"/>
</g>
<!-- p0x6031b6534460&#45;&gt;p0x6031b6536030 -->
<g id="edge4" class="edge">
<title>p0x6031b6534460&#45;&gt;p0x6031b6536030</title>
<path fill="none" stroke="black" d="M69.85,-90.23C73.89,-81.59 78.48,-71.78 82.79,-62.54"/>
<polygon fill="black" stroke="black" points="86.1,-63.73 87.16,-53.19 79.76,-60.77 86.1,-63.73"/>
</g>
</g>
</svg>
