<?xml version="1.0" encoding="UTF-8" standalone="no"?>
<!DOCTYPE svg PUBLIC "-//W3C//DTD SVG 1.1//EN"
 "http://www.w3.org/Graphics/SVG/1.1/DTD/svg11.dtd">
<!-- Generated by graphviz version 2.43.0 (0)
 -->
<!-- Title: CGraph Pages: 1 -->
<svg width="2512pt" height="146pt"
 viewBox="0.00 0.00 2512.00 145.50" xmlns="http://www.w3.org/2000/svg" xmlns:xlink="http://www.w3.org/1999/xlink">
<g id="graph0" class="graph" transform="scale(1 1) rotate(0) translate(4 141.5)">
<title>CGraph</title>
<polygon fill="white" stroke="transparent" points="-4,4 -4,-141.5 2508,-141.5 2508,4 -4,4"/>
<text text-anchor="middle" x="1252" y="-122.3" font-family="Noto Sans CJK SC" font-size="14.00">当前 CGraph 节点流程图（OpenVINO 异步推理）</text>
<text text-anchor="middle" x="1252" y="-107.3" font-family="Noto Sans CJK SC" font-size="14.00">CGraph 负责节点与消息流；async_infer 节点内部使用 2 个 OpenVINO InferRequest 异步流水线</text>
<!-- camera_pub -->
<g id="node1" class="node">
<title>camera_pub</title>
<path fill="#f8fafc" stroke="#475569" d="M90,-60.5C90,-60.5 12,-60.5 12,-60.5 6,-60.5 0,-54.5 0,-48.5 0,-48.5 0,-19.5 0,-19.5 0,-13.5 6,-7.5 12,-7.5 12,-7.5 90,-7.5 90,-7.5 96,-7.5 102,-13.5 102,-19.5 102,-19.5 102,-48.5 102,-48.5 102,-54.5 96,-60.5 90,-60.5"/>
<text text-anchor="middle" x="51" y="-45.3" font-family="Noto Sans CJK SC" font-size="14.00">相机发布节点</text>
<text text-anchor="middle" x="51" y="-30.3" font-family="Noto Sans CJK SC" font-size="14.00">camera_pub</text>
<text text-anchor="middle" x="51" y="-15.3" font-family="Noto Sans CJK SC" font-size="14.00">采集图像帧</text>
</g>
<!-- frame_topic -->
<g id="node5" class="node">
<title>frame_topic</title>
<polygon fill="#e0f2fe" stroke="#0284c7" points="508,-68 369,-68 369,0 514,0 514,-62 508,-68"/>
<polyline fill="none" stroke="#0284c7" points="508,-68 508,-62 "/>
<polyline fill="none" stroke="#0284c7" points="514,-62 508,-62 "/>
<text text-anchor="middle" x="441.5" y="-52.8" font-family="Noto Sans CJK SC" font-size="14.00">图像帧 Topic</text>
<text text-anchor="middle" x="441.5" y="-37.8" font-family="Noto Sans CJK SC" font-size="14.00">rm/frame/topic</text>
<text text-anchor="middle" x="441.5" y="-22.8" font-family="Noto Sans CJK SC" font-size="14.00">FrameMParam</text>
<text text-anchor="middle" x="441.5" y="-7.8" font-family="Noto Sans CJK SC" font-size="14.00">队列满时保留最新帧</text>
</g>
<!-- camera_pub&#45;&gt;frame_topic -->
<g id="edge1" class="edge">
<title>camera_pub&#45;&gt;frame_topic</title>
<path fill="none" stroke="#2563eb" d="M102.39,-34C167.33,-34 281.07,-34 358.53,-34"/>
<polygon fill="#2563eb" stroke="#2563eb" points="358.74,-37.5 368.74,-34 358.74,-30.5 358.74,-37.5"/>
<text text-anchor="middle" x="235.5" y="-52.8" font-family="Noto Sans CJK SC" font-size="14.00" fill="#334155">发送最新图像帧</text>
<text text-anchor="middle" x="235.5" y="-37.8" font-family="Noto Sans CJK SC" font-size="14.00" fill="#334155">CGRAPH_SEND_MPARAM(REPLACE)</text>
</g>
<!-- async_infer -->
<g id="node2" class="node">
<title>async_infer</title>
<path fill="#f8fafc" stroke="#475569" d="M985,-68C985,-68 833,-68 833,-68 827,-68 821,-62 821,-56 821,-56 821,-12 821,-12 821,-6 827,0 833,0 833,0 985,0 985,0 991,0 997,-6 997,-12 997,-12 997,-56 997,-56 997,-62 991,-68 985,-68"/>
<text text-anchor="middle" x="909" y="-52.8" font-family="Noto Sans CJK SC" font-size="14.00">OpenVINO 异步推理节点</text>
<text text-anchor="middle" x="909" y="-37.8" font-family="Noto Sans CJK SC" font-size="14.00">async_infer</text>
<text text-anchor="middle" x="909" y="-22.8" font-family="Noto Sans CJK SC" font-size="14.00">start_async + wait_for(0)</text>
<text text-anchor="middle" x="909" y="-7.8" font-family="Noto Sans CJK SC" font-size="14.00">2 个 InferRequest 槽位</text>
</g>
<!-- result_topic -->
<g id="node6" class="node">
<title>result_topic</title>
<polygon fill="#dcfce7" stroke="#059669" points="1366,-68 1256,-68 1256,0 1372,0 1372,-62 1366,-68"/>
<polyline fill="none" stroke="#059669" points="1366,-68 1366,-62 "/>
<polyline fill="none" stroke="#059669" points="1372,-62 1366,-62 "/>
<text text-anchor="middle" x="1314" y="-52.8" font-family="Noto Sans CJK SC" font-size="14.00">识别结果 Topic</text>
<text text-anchor="middle" x="1314" y="-37.8" font-family="Noto Sans CJK SC" font-size="14.00">rm/result/topic</text>
<text text-anchor="middle" x="1314" y="-22.8" font-family="Noto Sans CJK SC" font-size="14.00">ResultMParam</text>
<text text-anchor="middle" x="1314" y="-7.8" font-family="Noto Sans CJK SC" font-size="14.00">异步完成后发布</text>
</g>
<!-- async_infer&#45;&gt;result_topic -->
<g id="edge3" class="edge">
<title>async_infer&#45;&gt;result_topic</title>
<path fill="none" stroke="#2563eb" d="M997.44,-34C1071.98,-34 1177.56,-34 1245.66,-34"/>
<polygon fill="#2563eb" stroke="#2563eb" points="1245.85,-37.5 1255.85,-34 1245.85,-30.5 1245.85,-37.5"/>
<text text-anchor="middle" x="1126.5" y="-52.8" font-family="Noto Sans CJK SC" font-size="14.00" fill="#334155">推理完成后后处理并发布</text>
<text text-anchor="middle" x="1126.5" y="-37.8" font-family="Noto Sans CJK SC" font-size="14.00" fill="#334155">CGRAPH_PUB_MPARAM(REPLACE)</text>
</g>
<!-- pnp_solver -->
<g id="node3" class="node">
<title>pnp_solver</title>
<path fill="#f8fafc" stroke="#475569" d="M1818,-99.5C1818,-99.5 1683,-99.5 1683,-99.5 1677,-99.5 1671,-93.5 1671,-87.5 1671,-87.5 1671,-58.5 1671,-58.5 1671,-52.5 1677,-46.5 1683,-46.5 1683,-46.5 1818,-46.5 1818,-46.5 1824,-46.5 1830,-52.5 1830,-58.5 1830,-58.5 1830,-87.5 1830,-87.5 1830,-93.5 1824,-99.5 1818,-99.5"/>
<text text-anchor="middle" x="1750.5" y="-84.3" font-family="Noto Sans CJK SC" font-size="14.00">PnP 解算节点</text>
<text text-anchor="middle" x="1750.5" y="-69.3" font-family="Noto Sans CJK SC" font-size="14.00">pnp_solver</text>
<text text-anchor="middle" x="1750.5" y="-54.3" font-family="Noto Sans CJK SC" font-size="14.00">由装甲板角点解算位姿</text>
</g>
<!-- pnp_topic -->
<g id="node7" class="node">
<title>pnp_topic</title>
<polygon fill="#ffedd5" stroke="#ea580c" points="2131,-99.5 2000,-99.5 2000,-46.5 2137,-46.5 2137,-93.5 2131,-99.5"/>
<polyline fill="none" stroke="#ea580c" points="2131,-99.5 2131,-93.5 "/>
<polyline fill="none" stroke="#ea580c" points="2137,-93.5 2131,-93.5 "/>
<text text-anchor="middle" x="2068.5" y="-84.3" font-family="Noto Sans CJK SC" font-size="14.00">位姿结果 Topic</text>
<text text-anchor="middle" x="2068.5" y="-69.3" font-family="Noto Sans CJK SC" font-size="14.00">rm/pnp/topic</text>
<text text-anchor="middle" x="2068.5" y="-54.3" font-family="Noto Sans CJK SC" font-size="14.00">PnpResultMParam</text>
</g>
<!-- pnp_solver&#45;&gt;pnp_topic -->
<g id="edge6" class="edge">
<title>pnp_solver&#45;&gt;pnp_topic</title>
<path fill="none" stroke="#2563eb" d="M1830.02,-73C1878.74,-73 1941.09,-73 1989.68,-73"/>
<polygon fill="#2563eb" stroke="#2563eb" points="1989.83,-76.5 1999.83,-73 1989.83,-69.5 1989.83,-76.5"/>
<text text-anchor="middle" x="1915" y="-76.8" font-family="Noto Sans CJK SC" font-size="14.00" fill="#334155">发布位姿/无位姿结果</text>
</g>
<!-- display -->
<g id="node4" class="node">
<title>display</title>
<path fill="#f8fafc" stroke="#475569" d="M2492,-60.5C2492,-60.5 2314,-60.5 2314,-60.5 2308,-60.5 2302,-54.5 2302,-48.5 2302,-48.5 2302,-19.5 2302,-19.5 2302,-13.5 2308,-7.5 2314,-7.5 2314,-7.5 2492,-7.5 2492,-7.5 2498,-7.5 2504,-13.5 2504,-19.5 2504,-19.5 2504,-48.5 2504,-48.5 2504,-54.5 2498,-60.5 2492,-60.5"/>
<text text-anchor="middle" x="2403" y="-45.3" font-family="Noto Sans CJK SC" font-size="14.00">显示/调试节点</text>
<text text-anchor="middle" x="2403" y="-30.3" font-family="Noto Sans CJK SC" font-size="14.00">display</text>
<text text-anchor="middle" x="2403" y="-15.3" font-family="Noto Sans CJK SC" font-size="14.00">统计帧率、延迟并输出可视化</text>
</g>
<!-- frame_topic&#45;&gt;async_infer -->
<g id="edge2" class="edge">
<title>frame_topic&#45;&gt;async_infer</title>
<path fill="none" stroke="#2563eb" d="M514.21,-34C593.66,-34 722.19,-34 810.68,-34"/>
<polygon fill="#2563eb" stroke="#2563eb" points="810.72,-37.5 820.72,-34 810.72,-30.5 810.72,-37.5"/>
<text text-anchor="middle" x="667.5" y="-52.8" font-family="Noto Sans CJK SC" font-size="14.00" fill="#334155">空闲 InferRequest 可用时取帧</text>
<text text-anchor="middle" x="667.5" y="-37.8" font-family="Noto Sans CJK SC" font-size="14.00" fill="#334155">CGRAPH_RECV_MPARAM_WITH_TIMEOUT</text>
</g>
<!-- result_topic&#45;&gt;pnp_solver -->
<g id="edge4" class="edge">
<title>result_topic&#45;&gt;pnp_solver</title>
<path fill="none" stroke="#2563eb" d="M1372.25,-39.14C1445.84,-45.74 1574.4,-57.28 1660.72,-65.03"/>
<polygon fill="#2563eb" stroke="#2563eb" points="1660.5,-68.53 1670.77,-65.93 1661.13,-61.55 1660.5,-68.53"/>
<text text-anchor="middle" x="1521.5" y="-81.8" font-family="Noto Sans CJK SC" font-size="14.00" fill="#334155">订阅角点结果</text>
<text text-anchor="middle" x="1521.5" y="-66.8" font-family="Noto Sans CJK SC" font-size="14.00" fill="#334155">CGRAPH_SUB_MPARAM_WITH_TIMEOUT</text>
</g>
<!-- result_topic&#45;&gt;display -->
<g id="edge5" class="edge">
<title>result_topic&#45;&gt;display</title>
<path fill="none" stroke="#2563eb" d="M1372.29,-34C1545.01,-34 2062.73,-34 2291.38,-34"/>
<polygon fill="#2563eb" stroke="#2563eb" points="2291.72,-37.5 2301.72,-34 2291.72,-30.5 2291.72,-37.5"/>
<text text-anchor="middle" x="1915" y="-37.8" font-family="Noto Sans CJK SC" font-size="14.00" fill="#334155">订阅识别结果</text>
</g>
<!-- pnp_topic&#45;&gt;display -->
<g id="edge7" class="edge">
<title>pnp_topic&#45;&gt;display</title>
<path fill="none" stroke="#2563eb" d="M2137.19,-65.06C2181.6,-59.85 2240.7,-52.92 2291.8,-46.93"/>
<polygon fill="#2563eb" stroke="#2563eb" points="2292.39,-50.38 2301.91,-45.74 2291.57,-43.43 2292.39,-50.38"/>
<text text-anchor="middle" x="2219.5" y="-65.8" font-family="Noto Sans CJK SC" font-size="14.00" fill="#334155">订阅并匹配同帧位姿</text>
</g>
</g>
</svg>
